<svg width="48" height="48" viewBox="0 0 48 48" fill="none" xmlns="http://www.w3.org/2000/svg">
    <path
        d="M26 28C19.28 28 17.08 30.7 16.36 32.48C18.5 33.4 20 35.52 20 38C20 39.5913 19.3679 41.1174 18.2427 42.2426C17.1174 43.3679 15.5913 44 14 44C12.4087 44 10.8826 43.3679 9.75738 42.2426C8.63217 41.1174 8.00003 39.5913 8.00003 38C8.00003 35.38 9.66002 33.16 12 32.34V15.66C10.8281 15.2488 9.81325 14.4828 9.09645 13.4686C8.37964 12.4543 7.99643 11.242 8.00003 10C8.00003 8.4087 8.63217 6.88258 9.75738 5.75736C10.8826 4.63214 12.4087 4 14 4C15.5913 4 17.1174 4.63214 18.2427 5.75736C19.3679 6.88258 20 8.4087 20 10C20 12.62 18.34 14.84 16 15.66V26.24C17.76 24.94 20.32 24 24 24C29.34 24 31.12 21.32 31.7 19.54C30.6058 19.0842 29.6708 18.3151 29.0125 17.3294C28.3542 16.3436 28.0019 15.1853 28 14C28 12.4087 28.6322 10.8826 29.7574 9.75736C30.8826 8.63214 32.4087 8 34 8C35.5913 8 37.1174 8.63214 38.2427 9.75736C39.3679 10.8826 40 12.4087 40 14C40 16.68 38.24 19 35.82 19.72C35.3 22.58 33.36 28 26 28ZM14 36C13.4696 36 12.9609 36.2107 12.5858 36.5858C12.2107 36.9609 12 37.4696 12 38C12 38.5304 12.2107 39.0391 12.5858 39.4142C12.9609 39.7893 13.4696 40 14 40C14.5305 40 15.0392 39.7893 15.4142 39.4142C15.7893 39.0391 16 38.5304 16 38C16 37.4696 15.7893 36.9609 15.4142 36.5858C15.0392 36.2107 14.5305 36 14 36ZM14 8C13.4696 8 12.9609 8.21071 12.5858 8.58579C12.2107 8.96086 12 9.46957 12 10C12 10.5304 12.2107 11.0391 12.5858 11.4142C12.9609 11.7893 13.4696 12 14 12C14.5305 12 15.0392 11.7893 15.4142 11.4142C15.7893 11.0391 16 10.5304 16 10C16 9.46957 15.7893 8.96086 15.4142 8.58579C15.0392 8.21071 14.5305 8 14 8ZM34 12C33.4696 12 32.9609 12.2107 32.5858 12.5858C32.2107 12.9609 32 13.4696 32 14C32 14.5304 32.2107 15.0391 32.5858 15.4142C32.9609 15.7893 33.4696 16 34 16C34.5305 16 35.0392 15.7893 35.4142 15.4142C35.7893 15.0391 36 14.5304 36 14C36 13.4696 35.7893 12.9609 35.4142 12.5858C35.0392 12.2107 34.5305 12 34 12Z"
        fill="currentColor" />
</svg>