<svg xmlns="http://www.w3.org/2000/svg" width="48" height="48" viewBox="0 0 48 48" fill="none">
    <path fill-rule="evenodd" clip-rule="evenodd"
        d="M22.2 9.6L16.4313 10.3211C16.029 10.3714 15.8278 10.3965 15.7896 10.452C15.7569 10.4995 15.7544 10.5617 15.7831 10.6118C15.8167 10.6701 16.0152 10.7115 16.4121 10.7942L22.5349 12.0698L23.175 13.35L23.5325 12.2776L23.6494 12.3019L22.5491 15.6027C22.5307 15.6578 22.5215 15.6854 22.5145 15.7135C22.5083 15.7385 22.5033 15.7638 22.4997 15.7893C22.4956 15.8179 22.4937 15.8469 22.49 15.9049L21.0175 38.7291C21.011 38.8288 21.0078 38.8786 21.0169 38.9258C21.025 38.9677 21.0401 39.0078 21.0617 39.0445C21.086 39.086 21.1213 39.1213 21.192 39.192L23.5757 41.5757C23.7242 41.7242 23.7985 41.7985 23.8841 41.8263C23.9594 41.8508 24.0406 41.8508 24.1159 41.8263C24.2015 41.7985 24.2758 41.7242 24.4243 41.5757L26.808 39.192C26.8787 39.1213 26.914 39.086 26.9383 39.0445C26.9599 39.0078 26.975 38.9677 26.9831 38.9258C26.9922 38.8786 26.989 38.8288 26.9825 38.7291L25.51 15.9049C25.5063 15.8469 25.5044 15.8179 25.5003 15.7893C25.4967 15.7638 25.4917 15.7385 25.4855 15.7135C25.4785 15.6855 25.4693 15.6579 25.451 15.6029L24.3506 12.302L24.4675 12.2776L24.825 13.35L25.4651 12.0698L31.5879 10.7942C31.9849 10.7115 32.1833 10.6701 32.2169 10.6118C32.2457 10.5617 32.2432 10.4995 32.2104 10.452C32.1722 10.3965 31.9711 10.3714 31.5687 10.3211L25.8 9.6L24.2683 6.53666C24.182 6.36393 24.1388 6.27756 24.0803 6.24985C24.0295 6.22573 23.9705 6.22573 23.9197 6.24985C23.8612 6.27756 23.818 6.36393 23.7317 6.53665L22.2 9.6ZM22.1015 9.79696L21.8171 10.3658C21.7925 10.415 21.7802 10.4396 21.7753 10.4654C21.7711 10.4883 21.7711 10.5117 21.7753 10.5346C21.7802 10.5604 21.7925 10.585 21.8171 10.6342L22.3397 11.6794C22.0265 11.6165 21.7523 11.5584 21.5158 11.5031L17.2251 10.645C17.0218 10.6044 16.9201 10.584 16.9031 10.5548C16.8885 10.5298 16.8897 10.4986 16.906 10.4747C16.9251 10.4469 17.028 10.434 17.2338 10.4083L21.9103 9.82371C21.9721 9.81485 22.0358 9.80595 22.1015 9.79696ZM25.8985 9.79696L26.1829 10.3658C26.2075 10.415 26.2198 10.4396 26.2247 10.4654C26.2289 10.4883 26.2289 10.5117 26.2247 10.5346C26.2198 10.5604 26.2075 10.585 26.1829 10.6342L25.6603 11.6794C25.9735 11.6165 26.2478 11.5584 26.4843 11.5031L30.7749 10.645C30.9782 10.6044 31.0799 10.584 31.0969 10.5548C31.1115 10.5298 31.1104 10.4986 31.094 10.4747C31.0749 10.4469 30.972 10.434 30.7662 10.4083L26.0897 9.82371C26.0279 9.81485 25.9642 9.80595 25.8985 9.79696ZM24.3526 11.9328L24.1138 11.2165C24.0792 11.1125 24.0618 11.0605 24.0359 11.0463C24.0135 11.0341 23.9865 11.0341 23.9641 11.0463C23.9382 11.0605 23.9208 11.1125 23.8862 11.2165L23.6474 11.9328C23.6862 11.9402 23.7254 11.9477 23.7649 11.9552L23.8862 11.5915C23.9208 11.4875 23.9382 11.4355 23.9641 11.4213C23.9865 11.4091 24.0135 11.4091 24.0359 11.4213C24.0618 11.4355 24.0792 11.4875 24.1138 11.5915L24.2351 11.9552C24.2746 11.9477 24.3138 11.9402 24.3526 11.9328Z"
        fill="url(#linearGradient)" />
    <path
        d="M20.2903 11.8063C20.2814 11.7663 20.2241 11.7674 20.2168 11.8077L19.5188 15.6465C19.5117 15.6853 19.5082 15.7047 19.5037 15.7238C19.4997 15.7408 19.495 15.7577 19.4898 15.7744C19.484 15.7932 19.4771 15.8117 19.4635 15.8486L12.4307 34.837C12.2804 35.2428 12.2053 35.4457 12.2285 35.6282C12.2489 35.7886 12.3206 35.9382 12.433 36.0546C12.5608 36.1869 12.766 36.2554 13.1765 36.3922L21.0001 39L17.3254 37.1627C17.0299 37.015 16.8822 36.9411 16.7844 36.8282C16.698 36.7285 16.6395 36.6078 16.6147 36.4783C16.5866 36.3315 16.62 36.1698 16.687 35.8463L20.9478 15.2521C20.9673 15.158 20.977 15.1109 20.9807 15.0635C20.984 15.0213 20.9837 14.9789 20.9798 14.9368C20.9754 14.8894 20.965 14.8425 20.9441 14.7487L20.8088 14.1395L20.8085 14.1384L20.2903 11.8063Z"
        fill="url(#linearGradient)" />
    <path
        d="M27.7097 11.8063C27.7186 11.7663 27.7759 11.7674 27.7832 11.8077L28.4813 15.6465C28.4883 15.6853 28.4919 15.7047 28.4964 15.7238C28.5004 15.7408 28.505 15.7577 28.5102 15.7744C28.5161 15.7932 28.5229 15.8117 28.5366 15.8486L35.5694 34.837C35.7196 35.2428 35.7948 35.4457 35.7716 35.6282C35.7512 35.7886 35.6795 35.9382 35.5671 36.0546C35.4393 36.1869 35.234 36.2554 34.8235 36.3922L27 39L30.6747 37.1627C30.9701 37.015 31.1179 36.9411 31.2157 36.8282C31.302 36.7285 31.3606 36.6078 31.3854 36.4783C31.4135 36.3315 31.3801 36.1698 31.3131 35.8463L27.0523 15.2521C27.0328 15.158 27.0231 15.1109 27.0194 15.0635C27.0161 15.0213 27.0164 14.9789 27.0203 14.9368C27.0247 14.8894 27.0351 14.8425 27.0559 14.7487L27.1909 14.1412L27.1915 14.1384L27.7097 11.8063Z"
        fill="url(#linearGradient)" />
    <defs>
        <linearGradient id="linearGradient" x1="12.2243" y1="6.23176" x2="44.9952"
            y2="27.9036" gradientUnits="userSpaceOnUse">
            <stop stop-color="var(--active-from-color)" />
            <stop offset="1" stop-color="var(--active-to-color)" />
        </linearGradient>
    </defs>
</svg>