<svg width="48" height="48" viewBox="0 0 48 48" fill="none" xmlns="http://www.w3.org/2000/svg">
    <path
        d="M28 24V39.76C28.08 40.36 27.88 41 27.42 41.42C27.235 41.6054 27.0152 41.7525 26.7733 41.8529C26.5313 41.9532 26.272 42.0049 26.01 42.0049C25.7481 42.0049 25.4887 41.9532 25.2468 41.8529C25.0048 41.7525 24.785 41.6054 24.6 41.42L20.58 37.4C20.3619 37.1868 20.196 36.926 20.0954 36.638C19.9948 36.35 19.9621 36.0427 20 35.74V24H19.94L8.42002 9.24C8.09523 8.82306 7.94869 8.29452 8.01239 7.76986C8.0761 7.2452 8.34489 6.76709 8.76002 6.44C9.14002 6.16 9.56002 6 10 6H38C38.44 6 38.86 6.16 39.24 6.44C39.6551 6.76709 39.9239 7.2452 39.9876 7.76986C40.0513 8.29452 39.9048 8.82306 39.58 9.24L28.06 24H28Z"
        fill="currentColor" />
</svg>