<svg width="48" height="48" viewBox="0 0 48 48" fill="none" xmlns="http://www.w3.org/2000/svg">
    <path
        d="M16 24.4142C16 23.5233 14.9229 23.0771 14.2929 23.7071L9.29289 28.7071C9.10536 28.8946 9 29.149 9 29.4142V39C9 39.5523 9.44771 40 10 40H19.5858C19.851 40 20.1054 39.8946 20.2929 39.7071L29.7071 30.2929C29.8946 30.1054 30 29.851 30 29.5858V20C30 19.4477 29.5523 19 29 19H26.4142C26.149 19 25.8946 19.1054 25.7071 19.2929L24.7071 20.2929C24.0771 20.9229 24.5233 22 25.4142 22H26C26.5523 22 27 22.4477 27 23V28.5858C27 28.851 26.8946 29.1054 26.7071 29.2929L19.2929 36.7071C19.1054 36.8946 18.851 37 18.5858 37H13C12.4477 37 12 36.5523 12 36V30.4142C12 30.149 12.1054 29.8946 12.2929 29.7071L15.7071 26.2929C15.8946 26.1054 16 25.851 16 25.5858V24.4142Z"
        fill="#665319" />
    <path
        d="M32 23.5858C32 24.4767 33.0771 24.9229 33.7071 24.2929L38.7071 19.2929C38.8946 19.1054 39 18.851 39 18.5858L39 9C39 8.44772 38.5523 8 38 8L28.4142 8C28.149 8 27.8946 8.10536 27.7071 8.29289L18.2929 17.7071C18.1054 17.8946 18 18.149 18 18.4142L18 28C18 28.5523 18.4477 29 19 29H21.5858C21.851 29 22.1054 28.8946 22.2929 28.7071L23.2929 27.7071C23.9229 27.0771 23.4767 26 22.5858 26H22C21.4477 26 21 25.5523 21 25L21 19.4142C21 19.149 21.1054 18.8946 21.2929 18.7071L28.7071 11.2929C28.8946 11.1054 29.149 11 29.4142 11L35 11C35.5523 11 36 11.4477 36 12V17.5858C36 17.851 35.8946 18.1054 35.7071 18.2929L32.2929 21.7071C32.1054 21.8946 32 22.149 32 22.4142V23.5858Z"
        fill="currentcolor" />
</svg>