<svg width="48" height="48" viewBox="0 0 48 48" fill="none" xmlns="http://www.w3.org/2000/svg">
    <path
        d="M21.18 26.82C22 27.6 22 28.88 21.18 29.66C20.4 30.44 19.12 30.44 18.34 29.66C16.4667 27.784 15.4146 25.2412 15.4146 22.59C15.4146 19.9389 16.4667 17.3961 18.34 15.52L25.42 8.44003C27.296 6.56679 29.8388 5.51465 32.49 5.51465C35.1411 5.51465 37.6839 6.56679 39.56 8.44003C41.4332 10.3161 42.4854 12.8589 42.4854 15.51C42.4854 18.1612 41.4332 20.704 39.56 22.58L36.58 25.56C36.6 23.92 36.34 22.28 35.78 20.72L36.72 19.76C37.2806 19.2054 37.7257 18.5451 38.0295 17.8173C38.3333 17.0895 38.4897 16.3087 38.4897 15.52C38.4897 14.7314 38.3333 13.9506 38.0295 13.2228C37.7257 12.495 37.2806 11.8347 36.72 11.28C36.1653 10.7194 35.505 10.2742 34.7772 9.97047C34.0494 9.66669 33.2686 9.51028 32.48 9.51028C31.6913 9.51028 30.9105 9.66669 30.1827 9.97047C29.4549 10.2742 28.7946 10.7194 28.24 11.28L21.18 18.34C20.6193 18.8947 20.1742 19.555 19.8704 20.2828C19.5666 21.0106 19.4102 21.7914 19.4102 22.58C19.4102 23.3687 19.5666 24.1495 19.8704 24.8773C20.1742 25.6051 20.6193 26.2654 21.18 26.82ZM26.82 18.34C27.6 17.56 28.88 17.56 29.66 18.34C31.5332 20.2161 32.5854 22.7589 32.5854 25.41C32.5854 28.0612 31.5332 30.604 29.66 32.48L22.58 39.56C20.7039 41.4333 18.1611 42.4854 15.51 42.4854C12.8588 42.4854 10.316 41.4333 8.43997 39.56C6.56673 37.684 5.51459 35.1412 5.51459 32.49C5.51459 29.8389 6.56673 27.2961 8.43997 25.42L11.42 22.44C11.4 24.08 11.66 25.72 12.22 27.3L11.28 28.24C10.7193 28.7947 10.2742 29.455 9.97041 30.1828C9.66663 30.9106 9.51022 31.6914 9.51022 32.48C9.51022 33.2687 9.66663 34.0495 9.97041 34.7773C10.2742 35.5051 10.7193 36.1654 11.28 36.72C11.8346 37.2807 12.4949 37.7258 13.2227 38.0296C13.9505 38.3334 14.7313 38.4898 15.52 38.4898C16.3086 38.4898 17.0894 38.3334 17.8172 38.0296C18.545 37.7258 19.2053 37.2807 19.76 36.72L26.82 29.66C27.3806 29.1054 27.8258 28.4451 28.1295 27.7173C28.4333 26.9895 28.5897 26.2087 28.5897 25.42C28.5897 24.6314 28.4333 23.8506 28.1295 23.1228C27.8258 22.395 27.3806 21.7347 26.82 21.18C26.6257 20.998 26.4709 20.7781 26.365 20.5338C26.2592 20.2896 26.2046 20.0262 26.2046 19.76C26.2046 19.4938 26.2592 19.2305 26.365 18.9862C26.4709 18.742 26.6257 18.522 26.82 18.34Z"
        fill="currentColor" />
</svg>