<svg width="48" height="48" viewBox="0 0 48 48" fill="none" xmlns="http://www.w3.org/2000/svg">
    <path fill-rule="evenodd" clip-rule="evenodd"
        d="M36 9C36 8.44772 35.5523 8 35 8H13C12.4477 8 12 8.44772 12 9V39C12 39.5523 12.4477 40 13 40H35C35.5523 40 36 39.5523 36 39V9ZM30 17C30 16.4477 29.5523 16 29 16H19C18.4477 16 18 16.4477 18 17V18C18 18.5523 18.4477 19 19 19H29C29.5523 19 30 18.5523 30 18V17ZM30 23C30 22.4477 29.5523 22 29 22H19C18.4477 22 18 22.4477 18 23V24C18 24.5523 18.4477 25 19 25H29C29.5523 25 30 24.5523 30 24V23ZM18 29C18 28.4477 18.4477 28 19 28H29C29.5523 28 30 28.4477 30 29V30C30 30.5523 29.5523 31 29 31H19C18.4477 31 18 30.5523 18 30V29Z"
        fill="currentcolor" />
</svg>