<svg width="48" height="48" viewBox="0 0 48 48" fill="none" xmlns="http://www.w3.org/2000/svg">
    <path
        d="M24 4C26.6264 4 29.2272 4.51732 31.6537 5.52241C34.0802 6.5275 36.285 8.00069 38.1421 9.85786C39.9993 11.715 41.4725 13.9198 42.4776 16.3463C43.4827 18.7728 44 21.3736 44 24C44 29.3043 41.8929 34.3914 38.1421 38.1421C34.3914 41.8929 29.3043 44 24 44C21.3736 44 18.7728 43.4827 16.3463 42.4776C13.9198 41.4725 11.715 39.9993 9.85786 38.1421C6.10714 34.3914 4 29.3043 4 24C4 18.6957 6.10714 13.6086 9.85786 9.85786C13.6086 6.10714 18.6957 4 24 4ZM24 8C19.7565 8 15.6869 9.68571 12.6863 12.6863C9.68571 15.6869 8 19.7565 8 24C8 28.2435 9.68571 32.3131 12.6863 35.3137C15.6869 38.3143 19.7565 40 24 40C28.2435 40 32.3131 38.3143 35.3137 35.3137C38.3143 32.3131 40 28.2435 40 24C40 19.7565 38.3143 15.6869 35.3137 12.6863C32.3131 9.68571 28.2435 8 24 8ZM24 21C24.7956 21 25.5587 21.3161 26.1213 21.8787C26.6839 22.4413 27 23.2044 27 24C27 24.7956 26.6839 25.5587 26.1213 26.1213C25.5587 26.6839 24.7956 27 24 27C23.2044 27 22.4413 26.6839 21.8787 26.1213C21.3161 25.5587 21 24.7956 21 24C21 23.2044 21.3161 22.4413 21.8787 21.8787C22.4413 21.3161 23.2044 21 24 21ZM15 21C15.7956 21 16.5587 21.3161 17.1213 21.8787C17.6839 22.4413 18 23.2044 18 24C18 24.7956 17.6839 25.5587 17.1213 26.1213C16.5587 26.6839 15.7956 27 15 27C14.2044 27 13.4413 26.6839 12.8787 26.1213C12.3161 25.5587 12 24.7956 12 24C12 23.2044 12.3161 22.4413 12.8787 21.8787C13.4413 21.3161 14.2044 21 15 21ZM33 21C33.7956 21 34.5587 21.3161 35.1213 21.8787C35.6839 22.4413 36 23.2044 36 24C36 24.7956 35.6839 25.5587 35.1213 26.1213C34.5587 26.6839 33.7956 27 33 27C32.2044 27 31.4413 26.6839 30.8787 26.1213C30.3161 25.5587 30 24.7956 30 24C30 23.2044 30.3161 22.4413 30.8787 21.8787C31.4413 21.3161 32.2044 21 33 21Z"
        fill="currentColor" />
</svg>