<svg width="420" height="420" viewBox="0 0 420 420" fill="none" xmlns="http://www.w3.org/2000/svg">
    <g opacity="0.2">
        <path fill-rule="evenodd" clip-rule="evenodd"
            d="M420 20.4722C419.707 20.4722 419.414 20.5365 419.143 20.6651C418.52 20.9607 418.059 21.8818 417.138 23.724L400.8 56.4001L339.267 64.0916C334.976 64.6281 332.83 64.8963 332.423 65.4877C332.073 65.9952 332.046 66.6583 332.354 67.1925C332.711 67.8149 334.829 68.2559 339.063 69.138L404.372 82.7442L411.2 96.4L415.013 84.961L416.26 85.2208L404.524 120.429L404.523 120.431L404.522 120.435L404.52 120.439C404.327 121.02 404.229 121.313 404.155 121.611C404.088 121.877 404.036 122.147 403.997 122.419C403.953 122.725 403.933 123.034 403.893 123.653L388.186 367.11C388.118 368.174 388.083 368.706 388.181 369.209C388.267 369.655 388.428 370.083 388.658 370.475C388.917 370.917 389.294 371.294 390.048 372.048L415.475 397.475C417.059 399.059 417.851 399.851 418.764 400.147C419.166 400.278 419.583 400.343 420 400.343V75.7299C419.868 75.7299 419.736 75.7624 419.617 75.8276C419.341 75.9784 419.156 76.5332 418.786 77.643L417.493 81.5224L416.239 81.2836L418.786 73.643C419.156 72.5332 419.341 71.9784 419.617 71.8276C419.736 71.7624 419.868 71.7299 420 71.7299V20.4722ZM399.75 58.501L396.716 64.5689C396.453 65.0937 396.322 65.356 396.27 65.6312C396.225 65.875 396.225 66.1251 396.27 66.3688C396.322 66.644 396.453 66.9064 396.716 67.4311L402.29 78.5807C398.949 77.9092 396.024 77.29 393.501 76.7003L347.735 67.5469C345.566 67.1131 344.481 66.8962 344.3 66.585C344.144 66.318 344.156 65.9853 344.331 65.7303C344.535 65.4332 345.632 65.296 347.827 65.0217L397.71 58.7863C398.369 58.6918 399.049 58.5968 399.75 58.501Z"
            fill="url(#pattern)" />
        <path
            d="M380.43 79.9336C380.335 79.5076 379.724 79.5195 379.646 79.9489L372.201 120.896C372.125 121.31 372.088 121.517 372.039 121.721C371.996 121.902 371.947 122.082 371.892 122.26C371.829 122.461 371.756 122.658 371.61 123.052L296.594 325.595C294.991 329.923 294.19 332.087 294.437 334.034C294.655 335.746 295.42 337.341 296.619 338.582C297.982 339.994 300.171 340.724 304.55 342.183L388.001 370L348.804 350.402C345.653 348.826 344.077 348.039 343.033 346.834C342.112 345.77 341.488 344.483 341.223 343.102C340.923 341.536 341.28 339.811 341.994 336.36L387.443 116.689C387.651 115.685 387.755 115.183 387.794 114.677C387.829 114.227 387.826 113.775 387.784 113.326C387.738 112.821 387.627 112.322 387.406 111.325L387.405 111.323L387.405 111.321L387.404 111.32L385.96 104.822L385.958 104.81L380.43 79.9336Z"
            fill="url(#pattern)" />
    </g>
    <defs>
        <linearGradient id="pattern" x1="357.197" y1="20.4722" x2="357.197" y2="400.343"
            gradientUnits="userSpaceOnUse">
            <stop stop-color="var(--stroke-from-color)" />
            <stop offset="0.666667" stop-color="var(--stroke-from-color)" />
            <stop offset="1" stop-color="var(--stroke-to-color)" />
        </linearGradient>
    </defs>
</svg>