<svg width="48" height="48" viewBox="0 0 48 48" fill="none" xmlns="http://www.w3.org/2000/svg">
    <path
        d="M22.5858 7.41422L15.4142 14.5858C14.6332 15.3668 14.6332 16.6332 15.4142 17.4142L22.5858 24.5858C23.3668 25.3668 24.6332 25.3668 25.4142 24.5858L32.5858 17.4142C33.3668 16.6332 33.3668 15.3668 32.5858 14.5858L25.4142 7.41422C24.6332 6.63317 23.3668 6.63317 22.5858 7.41422Z"
        fill="currentcolor" />
    <path d="M20 27L21 26L24 29L27 26L28 27L26 38L24 40L22 38L20 27Z" fill="currentcolor" />
    <path d="M20 38L18 28L10 32L8 40H22L20 38Z" fill="currentcolor" />
    <path d="M28 38L30 28L38 32L40 40H26L28 38Z" fill="currentcolor" />
</svg>