<svg width="48" height="48" viewBox="0 0 48 48" fill="none" xmlns="http://www.w3.org/2000/svg">
    <path
        d="M26 4.09998V10.16C32.78 11.14 38 16.94 38 24C38 25.8 37.64 27.5 37 29.08L42.24 32.14C43.36 29.66 44 26.9 44 24C44 13.64 36.1 5.09998 26 4.09998ZM24 38C20.287 38 16.726 36.525 14.1005 33.8995C11.475 31.274 10 27.713 10 24C10 16.94 15.22 11.14 22 10.16V4.09998C11.88 5.09998 4 13.62 4 24C4 29.3043 6.10714 34.3914 9.85786 38.1421C11.715 39.9993 13.9198 41.4725 16.3463 42.4776C18.7728 43.4827 21.3736 44 24 44C30.6 44 36.46 40.78 40.1 35.82L34.9 32.76C33.6012 34.4048 31.9444 35.7317 30.0556 36.6397C28.1668 37.5477 26.0957 38.0129 24 38Z"
        fill="currentColor" />
</svg>