<svg width="48" height="48" viewBox="0 0 48 48" fill="none" xmlns="http://www.w3.org/2000/svg">
    <path fill-rule="evenodd" clip-rule="evenodd"
        d="M27.9706 28.9706C25.8511 30.8552 23.0593 32 20 32C13.3726 32 8 26.6274 8 20C8 13.3726 13.3726 8 20 8C26.6274 8 32 13.3726 32 20C32 23.0593 30.8552 25.8511 28.9706 27.9706L29 28H30L40 38L38 40L28 30V29L27.9706 28.9706ZM29.2308 20C29.2308 25.098 25.098 29.2308 20 29.2308C14.902 29.2308 10.7692 25.098 10.7692 20C10.7692 14.902 14.902 10.7692 20 10.7692C25.098 10.7692 29.2308 14.902 29.2308 20Z"
        fill="currentcolor" />
</svg>