<svg width="48" height="48" viewBox="0 0 48 48" fill="none" xmlns="http://www.w3.org/2000/svg">
    <path fill-rule="evenodd" clip-rule="evenodd"
        d="M21.5 8H26.5L27.5471 13.5844C28.9218 14.0525 30.1742 14.785 31.2435 15.7214L36.6064 13.8349L39.1064 18.1651L34.7929 21.8648C34.9288 22.5555 35 23.2694 35 24C35 24.7306 34.9288 25.4445 34.7929 26.1352L39.1064 29.8349L36.6064 34.1651L31.2435 32.2786C30.1742 33.215 28.9218 33.9475 27.5471 34.4156L26.5 40H21.5L20.4529 34.4156C19.0782 33.9475 17.8258 33.215 16.7565 32.2786L11.3936 34.1651L8.89363 29.8349L13.2071 26.1353C13.0712 25.4445 13 24.7306 13 24C13 23.2694 13.0712 22.5555 13.2071 21.8647L8.89362 18.1651L11.3936 13.8349L16.7565 15.7214C17.8258 14.785 19.0782 14.0525 20.4529 13.5844L21.5 8ZM24 30C27.3137 30 30 27.3137 30 24C30 20.6863 27.3137 18 24 18C20.6863 18 18 20.6863 18 24C18 27.3137 20.6863 30 24 30Z"
        fill="currentcolor" />
</svg>