<svg width="48" height="48" viewBox="0 0 48 48" fill="none" xmlns="http://www.w3.org/2000/svg">
    <path
        d="M36.728 34.7281L24 47.4561L11.272 34.7281C8.75469 32.2107 7.04037 29.0034 6.34586 25.5118C5.65134 22.0201 6.00781 18.4009 7.3702 15.1119C8.73258 11.8228 11.0397 9.01163 13.9998 7.03378C16.9598 5.05592 20.44 4.00024 24 4.00024C27.5601 4.00024 31.0402 5.05592 34.0002 7.03378C36.9603 9.01163 39.2674 11.8228 40.6298 15.1119C41.9922 18.4009 42.3487 22.0201 41.6542 25.5118C40.9596 29.0034 39.2453 32.2107 36.728 34.7281ZM24 30.0001C26.1217 30.0001 28.1566 29.1572 29.6569 27.6569C31.1572 26.1567 32 24.1218 32 22.0001C32 19.8784 31.1572 17.8435 29.6569 16.3432C28.1566 14.8429 26.1217 14.0001 24 14.0001C21.8783 14.0001 19.8434 14.8429 18.3432 16.3432C16.8429 17.8435 16 19.8784 16 22.0001C16 24.1218 16.8429 26.1567 18.3432 27.6569C19.8434 29.1572 21.8783 30.0001 24 30.0001ZM24 26.0001C22.9391 26.0001 21.9217 25.5787 21.1716 24.8285C20.4214 24.0784 20 23.061 20 22.0001C20 20.9392 20.4214 19.9218 21.1716 19.1717C21.9217 18.4215 22.9391 18.0001 24 18.0001C25.0609 18.0001 26.0783 18.4215 26.8284 19.1717C27.5786 19.9218 28 20.9392 28 22.0001C28 23.061 27.5786 24.0784 26.8284 24.8285C26.0783 25.5787 25.0609 26.0001 24 26.0001Z"
        fill="currentColor" />
</svg>