<svg width="48" height="48" viewBox="0 0 48 48" fill="none" xmlns="http://www.w3.org/2000/svg">
    <path d="M24 16L32 24L24 32L16 24L24 16Z" fill="currentcolor" />
    <path d="M23 12L23.5 9L24 8.5L24.5 9L25 12L27.5 15L27 16L24 13L21 16L20.5 15L23 12Z"
        fill="currentcolor" />
    <path d="M12 25L9 24.5L8.5 24L9 23.5L12 23L15 20.5L16 21L13 24L16 27L15 27.5L12 25Z"
        fill="currentcolor" />
    <path d="M25 36L24.5 39L24 39.5L23.5 39L23 36L20.5 33L21 32L24 35L27 32L27.5 33L25 36Z"
        fill="currentcolor" />
    <path d="M36 23L39 23.5L39.5 24L39 24.5L36 25L33 27.5L32 27L35 24L32 21L33 20.5L36 23Z"
        fill="currentcolor" />
</svg>