<svg width="48" height="48" viewBox="0 0 48 48" fill="none" xmlns="http://www.w3.org/2000/svg">
    <path
        d="M2 42L24 4L46 42H2ZM8.9 38H39.1L24 12L8.9 38ZM24 36C24.5667 36 25.042 35.808 25.426 35.424C25.81 35.04 26.0013 34.5653 26 34C26 33.4333 25.808 32.958 25.424 32.574C25.04 32.19 24.5653 31.9987 24 32C23.4333 32 22.958 32.192 22.574 32.576C22.19 32.96 21.9987 33.4347 22 34C22 34.5667 22.192 35.042 22.576 35.426C22.96 35.81 23.4347 36.0013 24 36ZM22 30H26V20H22V30Z"
        fill="currentColor" />
</svg>