<svg width="36" height="36" viewBox="0 0 36 36" fill="none" xmlns="http://www.w3.org/2000/svg">
<path fill-rule="evenodd" clip-rule="evenodd" d="M17.9132 2.40195C17.9516 2.33477 18.0484 2.33477 18.0868 2.40195L20.2249 6.14355L20.2255 6.1447L25.4771 6.70738C25.5357 6.71365 25.5372 6.79827 25.4789 6.80659L19.6017 7.64619L18.8802 9.26961C18.8458 9.34683 18.7371 9.3493 18.6993 9.27371L18.0894 8.05389C18.0526 7.98019 17.9474 7.98019 17.9105 8.05389L17.3006 9.27371C17.2628 9.3493 17.1541 9.34683 17.1198 9.26961L16.3983 7.64619L10.5211 6.80659C10.4629 6.79827 10.4643 6.71365 10.5229 6.70738L15.7745 6.1447L15.7751 6.14355L17.9132 2.40195ZM15.8457 6.40293L12.7733 6.71018C12.7147 6.71603 12.7126 6.80065 12.7708 6.80938L16.2589 7.33259L15.8457 6.40293ZM19.7411 7.3326L23.2292 6.80938C23.2874 6.80065 23.2853 6.71603 23.2268 6.71018L20.1542 6.40293L19.7411 7.3326Z" fill="url(#paint0_linear_1690_2871)"/>
<path d="M16.8799 11.2377L17.9072 8.66962C17.9407 8.5858 18.0593 8.5858 18.0929 8.66962L19.1201 11.2377C19.1233 11.2459 19.1255 11.2544 19.1266 11.2632L21.3693 30.3269C21.3729 30.3573 21.3624 30.3876 21.3407 30.4093L18.0707 33.6793C18.0317 33.7183 17.9683 33.7183 17.9293 33.6793L14.6593 30.4093C14.6376 30.3876 14.6271 30.3573 14.6307 30.3269L16.8735 11.2632C16.8745 11.2544 16.8767 11.2459 16.8799 11.2377Z" fill="url(#paint1_linear_1690_2871)"/>
<path d="M15.2535 8.20486L15.7454 10.6646C15.7484 10.6797 15.7479 10.6952 15.744 10.71L11.2674 27.4973C11.2569 27.5367 11.2714 27.5785 11.304 27.603L13.0809 28.9357C13.1692 29.0019 13.101 29.1412 12.9946 29.1122L7.42068 27.592C7.36304 27.5763 7.33196 27.5139 7.35415 27.4584L15.0626 8.18733C15.0995 8.09498 15.234 8.10733 15.2535 8.20486Z" fill="url(#paint2_linear_1690_2871)"/>
<path d="M20.2546 10.6646L20.7465 8.20486C20.766 8.10733 20.9005 8.09498 20.9374 8.18733L28.6459 27.4584C28.668 27.5139 28.637 27.5763 28.5793 27.592L23.0054 29.1122C22.899 29.1412 22.8309 29.0019 22.9191 28.9357L24.696 27.603C24.7286 27.5785 24.7431 27.5367 24.7326 27.4973L20.256 10.71C20.2521 10.6952 20.2516 10.6797 20.2546 10.6646Z" fill="url(#paint3_linear_1690_2871)"/>
<defs>
<linearGradient id="paint0_linear_1690_2871" x1="7.34695" y1="2.35156" x2="36.4999" y2="22.1601" gradientUnits="userSpaceOnUse">
<stop stop-color="#FFE699"/>
<stop offset="1" stop-color="#664D00"/>
</linearGradient>
<linearGradient id="paint1_linear_1690_2871" x1="7.34695" y1="2.35156" x2="36.4999" y2="22.1601" gradientUnits="userSpaceOnUse">
<stop stop-color="#FFE699"/>
<stop offset="1" stop-color="#664D00"/>
</linearGradient>
<linearGradient id="paint2_linear_1690_2871" x1="7.34695" y1="2.35156" x2="36.4999" y2="22.1601" gradientUnits="userSpaceOnUse">
<stop stop-color="#FFE699"/>
<stop offset="1" stop-color="#664D00"/>
</linearGradient>
<linearGradient id="paint3_linear_1690_2871" x1="7.34695" y1="2.35156" x2="36.4999" y2="22.1601" gradientUnits="userSpaceOnUse">
<stop stop-color="#FFE699"/>
<stop offset="1" stop-color="#664D00"/>
</linearGradient>
</defs>
</svg>
