<svg width="48" height="48" viewBox="0 0 48 48" fill="none" xmlns="http://www.w3.org/2000/svg">
<path d="M23.9999 31C22.1434 31 20.3629 30.2625 19.0502 28.9498C17.7374 27.637 16.9999 25.8565 16.9999 24C16.9999 22.1435 17.7374 20.363 19.0502 19.0503C20.3629 17.7375 22.1434 17 23.9999 17C25.8564 17 27.6369 17.7375 28.9497 19.0503C30.2624 20.363 30.9999 22.1435 30.9999 24C30.9999 25.8565 30.2624 27.637 28.9497 28.9498C27.6369 30.2625 25.8564 31 23.9999 31ZM38.8599 25.94C38.9399 25.3 38.9999 24.66 38.9999 24C38.9999 23.34 38.9399 22.68 38.8599 22L43.0799 18.74C43.4599 18.44 43.5599 17.9 43.3199 17.46L39.3199 10.54C39.0799 10.1 38.5399 9.92 38.0999 10.1L33.1199 12.1C32.0799 11.32 30.9999 10.64 29.7399 10.14L28.9999 4.84C28.9593 4.60444 28.8366 4.39086 28.6536 4.23711C28.4705 4.08336 28.239 3.99936 27.9999 4H19.9999C19.4999 4 19.0799 4.36 18.9999 4.84L18.2599 10.14C16.9999 10.64 15.9199 11.32 14.8799 12.1L9.89992 10.1C9.45992 9.92 8.91992 10.1 8.67992 10.54L4.67992 17.46C4.41992 17.9 4.53992 18.44 4.91992 18.74L9.13992 22C9.05992 22.68 8.99992 23.34 8.99992 24C8.99992 24.66 9.05992 25.3 9.13992 25.94L4.91992 29.26C4.53992 29.56 4.41992 30.1 4.67992 30.54L8.67992 37.46C8.91992 37.9 9.45992 38.06 9.89992 37.9L14.8799 35.88C15.9199 36.68 16.9999 37.36 18.2599 37.86L18.9999 43.16C19.0799 43.64 19.4999 44 19.9999 44H27.9999C28.4999 44 28.9199 43.64 28.9999 43.16L29.7399 37.86C30.9999 37.34 32.0799 36.68 33.1199 35.88L38.0999 37.9C38.5399 38.06 39.0799 37.9 39.3199 37.46L43.3199 30.54C43.5599 30.1 43.4599 29.56 43.0799 29.26L38.8599 25.94Z" fill="black"/>
</svg>
